<?xml version="1.0" encoding="UTF-8" standalone="no"?>
<!-- Created with Inkscape (http://www.inkscape.org/) -->

<svg
   width="100mm"
   height="100mm"
   viewBox="-3.1 -1.1 26.25 37.125"
   version="1.1"
   id="svg5"
   xmlns:xlink="http://www.w3.org/1999/xlink"
   xmlns="http://www.w3.org/2000/svg"
   xmlns:svg="http://www.w3.org/2000/svg">
  <defs
     id="defs2" />
  <g
     id="layer4">
    <g
       id="g72459">
      <rect
         style="fill:#000000;stroke:#000000;stroke-width:0.330073;fill-opacity:1"
         id="rect58584"
         width="31.929155"
         height="2.0469577"
         x="-5.990232"
         y="25.588482" />
      <rect
         style="fill:#000000;fill-opacity:1;stroke:#000000;stroke-width:0.380874"
         id="rect58763"
         width="2.2011933"
         height="11.313136"
         x="-0.81399882"
         y="14.123037" />
      <rect
         style="fill:#000000;fill-opacity:1;stroke:#000000;stroke-width:0.380874"
         id="rect58763-0"
         width="2.2011933"
         height="11.313136"
         x="2.5305336"
         y="14.125117" />
      <rect
         style="fill:#000000;fill-opacity:1;stroke:#000000;stroke-width:0.380874"
         id="rect58763-04"
         width="2.2011933"
         height="11.313136"
         x="15.384743"
         y="14.123037" />
      <rect
         style="fill:#000000;fill-opacity:1;stroke:#000000;stroke-width:0.380874"
         id="rect58763-0-1"
         width="2.2011933"
         height="11.313136"
         x="18.729275"
         y="14.140118" />
      <rect
         style="fill:#000000;fill-opacity:1;stroke:#000000;stroke-width:0.37125"
         id="rect59011"
         width="0.98226559"
         height="4.4201951"
         x="-0.20453495"
         y="8.7226562" />
      <rect
         style="fill:#000000;fill-opacity:1;stroke:#000000;stroke-width:0.37125"
         id="rect59011-9"
         width="0.98226559"
         height="4.4201951"
         x="3.1399975"
         y="8.7226562" />
      <rect
         style="fill:#000000;fill-opacity:1;stroke:#000000;stroke-width:0.37125"
         id="rect59011-1"
         width="0.98226559"
         height="4.4201951"
         x="15.994206"
         y="8.7226562" />
      <rect
         style="fill:#000000;fill-opacity:1;stroke:#000000;stroke-width:0.37125"
         id="rect59011-9-3"
         width="0.98226559"
         height="4.4201951"
         x="19.338739"
         y="8.7226562" />
      <g
         id="path59422">
        <path
           style="color:#000000;fill:#000000;fill-rule:evenodd;stroke-width:1.85625;stroke-linecap:round;-inkscape-stroke:none"
           d="M -5.0995703,7.7403906 H 25.055984"
           id="path66563" />
        <path
           style="color:#000000;fill:#000000;fill-rule:evenodd;stroke:none;stroke-linecap:round;stroke-opacity:1;-inkscape-stroke:none"
           d="m -5.0996094,6.8125 c -0.5122842,2.156e-4 -0.9275187,0.4154502 -0.9277343,0.9277344 2.156e-4,0.5122842 0.4154501,0.9275188 0.9277343,0.9277344 H 22.397752 C 22.910036,8.667753 23.32527,8.2525185 23.325486,7.7402344 23.32527,7.2279503 22.910036,6.8127158 22.397752,6.8125 Z m 29.5848304,1.8594098 0.836262,-0.00138 c 0.430383,-7.102e-4 0.828991,-0.43901 0.831285,-0.9290523 0.0023,-0.4922234 -0.400901,-0.9231699 -0.833327,-0.9236172 l -2.136533,-0.00221 c 0.491132,0.098227 0.687586,0.5318304 0.699116,0.8851296 -0.01153,0.4325133 -0.207984,0.9473859 -0.699116,0.9711263 z"
           id="path66565" />
      </g>
    </g>
  </g>
</svg>
