<?xml version="1.0" encoding="UTF-8" standalone="no"?>
<!-- Created with Inkscape (http://www.inkscape.org/) -->

<svg
   width="100mm"
   height="100mm"
   viewBox="-3.1 -1.1 26.25 37.125"
   version="1.1"
   id="svg5"
   xmlns="http://www.w3.org/2000/svg"
   xmlns:svg="http://www.w3.org/2000/svg">
  <defs
     id="defs2" />
  <g
     id="layer4"
     style="display:inline">
    <g
       id="g90432"
       transform="translate(0.05065417,0.18452261)">
      <rect
         style="fill-opacity:1;stroke-width:0.330073"
         id="rect58584"
         width="31.929155"
         height="2.0469577"
         x="-5.990232"
         y="25.588482" />
      <rect
         style="fill-opacity:1;stroke-width:0.322295"
         id="rect58763"
         width="1.5675294"
         height="11.375506"
         x="5.7401514"
         y="15.458155"
         transform="matrix(0.98741671,0.15813994,-0.1882092,0.98212896,0,0)" />
      <rect
         style="display:inline;fill-opacity:1;stroke-width:0.322295"
         id="rect58763-5"
         width="1.5675294"
         height="11.375506"
         x="-14.158308"
         y="18.662155"
         transform="matrix(-0.98741671,0.15813994,0.1882092,0.98212896,0,0)" />
      <path
         style="fill-opacity:1;fill-rule:evenodd;stroke-width:0.0982266px;stroke-linecap:butt;stroke-linejoin:miter;stroke-opacity:1"
         d="m 2.2674216,17.563046 -2.94679666,1e-6 c 0,0 -0.98226564,0 -1.96453134,-0.982266 -1.4733983,-1.473398 -1.4733984,-1.964531 -1.4733984,-1.964531 0,0 -0.2707933,-2.002595 0,-2.946797 0.085155,-0.296919 0.2707387,-0.56939 0.4911328,-0.785813 0.272442,-0.267534 0.6012751,-0.56396 0.9822656,-0.589359 1.4733985,-0.09823 7.4652186,-0.09823 7.4652186,-0.09823 V 7.5439373 c 0,0 0.092913,-0.2893664 0.1964531,-0.3929063 C 5.1730751,6.9957212 5.3875781,6.8628031 5.6071246,6.8563514 5.8563742,6.8490269 6.1132856,6.9799643 6.2947108,7.1510312 6.4012473,7.251485 6.4911637,7.5439373 6.4911637,7.5439373 V 10.196054 H 13.563476 V 7.3474842 c 0,0 0.09872,-0.2792613 0.29443,-0.4029554 0.29493,-0.1864039 0.664096,-0.1864039 0.982765,-0.00339 0.181804,0.1044102 0.29443,0.4063469 0.29443,0.4063469 v 2.8485693 h 6.777633 c 0,0 0.392906,0 0.72917,0.115659 0.242273,0.08333 0.558357,0.334298 0.744228,0.473701 0.360557,0.270417 0.392906,0.491133 0.392906,0.491133 v 3.536156 c 0,0 1e-6,0.491132 -0.589359,1.178718 -0.443397,0.517297 -0.880251,0.892244 -1.511577,1.178719 -0.649407,0.294679 -1.044616,0.270699 -1.044616,0.270699 l -2.748041,0.02398 c -6.832247,0.0457 -11.4989417,0.09746 -15.6180234,0.09822 z"
         id="path84127" />
    </g>
  </g>
</svg>
