<?xml version="1.0" encoding="UTF-8" standalone="no"?>
<!-- Created with Inkscape (http://www.inkscape.org/) -->

<svg
   width="100mm"
   height="100mm"
   viewBox="-3.1 -1.1 26.25 37.125"
   version="1.1"
   id="svg5"
   xmlns="http://www.w3.org/2000/svg"
   xmlns:svg="http://www.w3.org/2000/svg">
  <defs
     id="defs2" />
  <g
     id="layer1"
     transform="translate(-44.62645,-107.22098)" />
  <g
     id="layer4"
     style="display:inline">
    <path
       style="fill-opacity:1;fill-rule:evenodd;stroke-width:0.0982266px;stroke-linecap:butt;stroke-linejoin:miter;stroke-opacity:1"
       d="m 8.0113557,11.080093 h -2.455664 l -6.48295304,5.991821 -0.49113276,0.294679 h -0.4911328 l -0.4911328,-0.09823 -0.4911328,-0.392907 -0.5893594,-0.687585 -0.098227,-0.392907 v -0.392906 l 0.1964531,-0.392906 0.3929062,-0.58936 1.6698516,-1.669851 2.2592113,-2.16098 L 2.5106683,9.2137888 3.1000277,8.722656 3.7876136,8.4279763 4.7698792,8.1332966 5.8503713,7.9368435 6.8326369,7.838617 11.351059,7.7403904 h 8.152804 l 2.946797,0.098227 0.29468,0.098226 0.392906,0.1964531 0.29468,0.3929063 0.196453,0.4911328 v 0.6875859 l -0.09823,0.5893595 -0.196453,0.29468 -0.196453,0.294679 -0.294679,0.09823 -0.29468,0.09823 -7.268766,-7e-6 H 10.66347 v 5.206015 h 1.768078 V 30.921859 H 6.4397307 V 16.286108 H 8.011356 Z"
       id="path93810" />
  </g>
</svg>
